<svg xmlns="http://www.w3.org/2000/svg" viewBox="0 0 512 512">
    <rect width="512" height="512" fill="#0d001a" rx="100"/>
    
    <circle cx="256" cy="256" r="210" stroke="#8a2be2" stroke-width="20" fill="none" opacity="0.8"/>
    
    <circle cx="256" cy="256" r="160" stroke="#ffd700" stroke-width="14" stroke-dasharray="25 15" fill="none"/>
    
    <line x1="176" y1="386" x2="286" y2="226" stroke="#a0522d" stroke-width="28" stroke-linecap="round"/>
    <line x1="166" y1="396" x2="216" y2="326" stroke="#5c4033" stroke-width="34" stroke-linecap="round"/>
    
    <path d="M 286 226 L 316 136 L 346 176 L 406 76 L 366 206 L 326 186 Z" fill="#00ffff"/>
    <circle cx="286" cy="226" r="18" fill="#ffffff"/>
    
    <path d="M 100 180 Q 130 180 130 150 Q 130 180 160 180 Q 130 180 130 210 Q 130 180 100 180 Z" fill="#ffd700"/>
    <path d="M 370 330 Q 390 330 390 310 Q 390 330 410 330 Q 390 330 390 350 Q 390 330 370 330 Z" fill="#ffd700"/>
    <path d="M 220 100 Q 230 100 230 90 Q 230 100 240 100 Q 230 100 230 110 Q 230 100 220 100 Z" fill="#ffffff"/>
    <path d="M 160 290 Q 170 290 170 280 Q 170 290 180 290 Q 170 290 170 300 Q 170 290 160 290 Z" fill="#00ffff"/>
</svg>
